<svg width="147" height="20" viewBox="0 0 147 20" fill="none" xmlns="http://www.w3.org/2000/svg">
<g clip-path="url(#clip0_2447_2815)">
<path d="M43.4644 2.59277V4.74556H35.4271L36.7473 3.38788V9.69621L35.4271 8.57106H43.1156V10.7051H35.4271L36.7473 9.57994V16.3721H34.2832V2.59277H43.4644Z" fill="white"/>
<path d="M47.1883 2.59277V13.7542C47.1883 13.9868 47.2483 14.1668 47.3646 14.2868C47.4808 14.4106 47.6609 14.4706 47.9084 14.4706H48.6847V16.3721H47.2858C46.5207 16.3721 45.9094 16.1471 45.4518 15.6932C44.9943 15.2394 44.7617 14.6244 44.7617 13.848V2.59277H47.1883Z" fill="white"/>
<path d="M51.2652 15.9483C50.5001 15.5094 49.9113 14.8794 49.4875 14.0655C49.0637 13.2517 48.8574 12.3065 48.8574 11.2301C48.8574 10.1537 49.0674 9.21237 49.4875 8.39476C49.9076 7.58091 50.5001 6.95082 51.2652 6.51202C52.0303 6.07321 52.908 5.85193 53.9056 5.85193C54.9032 5.85193 55.7996 6.07321 56.5647 6.51202C57.3298 6.95082 57.9186 7.58091 58.3424 8.39476C58.7625 9.20862 58.9725 10.1537 58.9725 11.2301C58.9725 12.3065 58.7625 13.2479 58.3424 14.0655C57.9224 14.8831 57.3298 15.5094 56.5647 15.9483C55.7996 16.3871 54.9145 16.6083 53.9056 16.6083C52.8967 16.6083 52.0303 16.3871 51.2652 15.9483ZM55.7996 13.7242C56.2459 13.1241 56.4709 12.2915 56.4709 11.2301C56.4709 10.1687 56.2496 9.33614 55.7996 8.73606C55.3495 8.13598 54.7232 7.83219 53.9056 7.83219C53.088 7.83219 52.4579 8.13223 52.0116 8.73606C51.5653 9.33989 51.3402 10.1687 51.3402 11.2301C51.3402 12.2915 51.5653 13.1241 52.0116 13.7242C52.4579 14.3243 53.088 14.6281 53.9056 14.6281C54.7232 14.6281 55.3533 14.328 55.7996 13.7242Z" fill="white"/>
<path d="M62.6404 2.59277V13.7542C62.6404 13.9868 62.7004 14.1668 62.8167 14.2868C62.933 14.4106 63.113 14.4706 63.3605 14.4706H64.1369V16.3721H62.7379C61.9728 16.3721 61.3615 16.1471 60.904 15.6932C60.4464 15.2394 60.2139 14.6244 60.2139 13.848V2.59277H62.6404Z" fill="white"/>
<path d="M66.7174 15.9483C65.9523 15.5094 65.3635 14.8794 64.9397 14.0655C64.5158 13.2517 64.3096 12.3065 64.3096 11.2301C64.3096 10.1537 64.5196 9.21237 64.9397 8.39476C65.3597 7.58091 65.9523 6.95082 66.7174 6.51202C67.4825 6.07321 68.3601 5.85193 69.3577 5.85193C70.3554 5.85193 71.2517 6.07321 72.0168 6.51202C72.7819 6.95082 73.3708 7.58091 73.7946 8.39476C74.2146 9.20862 74.4247 10.1537 74.4247 11.2301C74.4247 12.3065 74.2146 13.2479 73.7946 14.0655C73.3745 14.8831 72.7819 15.5094 72.0168 15.9483C71.2517 16.3871 70.3666 16.6083 69.3577 16.6083C68.3488 16.6083 67.4825 16.3871 66.7174 15.9483ZM71.248 13.7242C71.6943 13.1241 71.9193 12.2915 71.9193 11.2301C71.9193 10.1687 71.698 9.33614 71.248 8.73606C70.7979 8.13598 70.1716 7.83219 69.354 7.83219C68.5364 7.83219 67.9063 8.13223 67.46 8.73606C67.0137 9.33989 66.7886 10.1687 66.7886 11.2301C66.7886 12.2915 67.0137 13.1241 67.46 13.7242C67.9063 14.3243 68.5364 14.6281 69.354 14.6281C70.1716 14.6281 70.8017 14.328 71.248 13.7242Z" fill="white"/>
<path d="M77.0537 15.2469C76.3598 14.8344 75.8273 14.2493 75.4522 13.4992C75.0772 12.7491 74.8896 11.894 74.8896 10.9376C74.8896 9.98122 75.0772 9.0736 75.4522 8.29725C75.8273 7.5209 76.3636 6.92082 77.0612 6.49326C77.7588 6.06571 78.5576 5.85193 79.4503 5.85193C80.1103 5.85193 80.7029 6.0132 81.228 6.33574C81.7531 6.65828 82.1356 7.10084 82.3831 7.65592V6.08446H84.7309V15.2282C84.7309 16.1208 84.5247 16.8896 84.1084 17.5385C83.6958 18.1836 83.1182 18.6749 82.3794 19.0049C81.6405 19.335 80.7892 19.5 79.8178 19.5C79.0527 19.5 78.3551 19.38 77.7213 19.1399C77.0874 18.8999 76.5511 18.5624 76.1123 18.1198C75.6735 17.681 75.3622 17.1672 75.1822 16.5858L77.6463 16.3908C77.8263 16.7921 78.1038 17.1034 78.4826 17.3209C78.8577 17.5422 79.3115 17.651 79.8403 17.651C80.6279 17.651 81.2392 17.4747 81.663 17.1184C82.0906 16.7621 82.3044 16.2483 82.3044 15.577V14.2193C82.0193 14.7368 81.6143 15.1419 81.093 15.4307C80.5716 15.7195 80.0203 15.8657 79.454 15.8657C78.5464 15.8657 77.7475 15.6595 77.0574 15.2432L77.0537 15.2469ZM77.6838 12.5316C77.89 12.9966 78.1863 13.3679 78.5689 13.638C78.9514 13.908 79.3865 14.0468 79.8778 14.0468C80.3691 14.0468 80.8192 13.9117 81.1867 13.638C81.5543 13.3642 81.8431 12.9966 82.0493 12.5316C82.2556 12.0665 82.3606 11.5302 82.3606 10.9188C82.3719 10.3113 82.2781 9.77494 82.0793 9.30613C81.8768 8.84107 81.5955 8.47352 81.2242 8.21099C80.8567 7.9447 80.4066 7.81344 79.8741 7.81344C79.3415 7.81344 78.9289 7.9447 78.5539 8.21099C78.1788 8.47727 77.8863 8.84482 77.68 9.31738C77.4737 9.78995 77.3687 10.3225 77.3687 10.9188C77.3687 11.5152 77.4737 12.0627 77.68 12.5316H77.6838Z" fill="white"/>
<path d="M94.0288 3.07659C94.7264 3.39913 95.2702 3.86419 95.6603 4.47552C96.0503 5.0831 96.2416 5.7957 96.2416 6.60955C96.2416 7.42341 96.0466 8.10975 95.6603 8.70608C95.2702 9.30241 94.7302 9.75622 94.0288 10.075C93.3312 10.3938 92.5024 10.5513 91.546 10.5513H87.683V16.3758H86.8691V2.59277H91.546C92.5024 2.59277 93.3312 2.75404 94.0288 3.07659ZM94.3776 8.95736C95.0377 8.41354 95.3678 7.62969 95.3678 6.60955C95.3678 5.58942 95.0377 4.76056 94.3776 4.20174C93.7175 3.64666 92.7724 3.36538 91.5423 3.36538H87.6792V9.77122H91.5423C92.7724 9.77122 93.7175 9.50118 94.3776 8.95736Z" fill="white"/>
<path d="M98.3944 2.59277V8.80359L98.2969 8.74358C98.3869 7.78721 98.7619 7.06336 99.422 6.57955C100.082 6.09573 100.892 5.85195 101.849 5.85195C102.936 5.85195 103.773 6.2195 104.361 6.9471C104.95 7.67844 105.243 8.61232 105.243 9.75247V16.3721H104.466V10.24C104.466 9.48993 104.369 8.84485 104.174 8.30853C103.979 7.7722 103.675 7.3559 103.263 7.05586C102.846 6.75957 102.31 6.60955 101.65 6.60955C100.626 6.60955 99.8271 6.94335 99.2532 7.61093C98.6757 8.27852 98.3906 9.15239 98.3906 10.24V16.3721H97.6143V2.59277H98.3906H98.3944Z" fill="white"/>
<path d="M108.082 6.71833C108.768 6.1445 109.645 5.85571 110.722 5.85571C112.005 5.85571 112.968 6.21951 113.613 6.94336C114.262 7.6672 114.585 8.74359 114.585 10.165V14.5719C114.585 14.9469 114.649 15.2207 114.78 15.3857C114.907 15.5545 115.117 15.637 115.402 15.637H115.751V16.3758H115.267C114.945 16.3646 114.671 16.2896 114.454 16.1508C114.236 16.012 114.064 15.7945 113.947 15.4907C113.831 15.1869 113.786 14.7744 113.812 14.2568C113.49 14.9807 112.995 15.547 112.327 15.9558C111.659 16.3646 110.902 16.5784 110.047 16.6046C109.012 16.5934 108.179 16.3308 107.553 15.817C106.926 15.307 106.611 14.6356 106.611 13.8068C106.611 13.1992 106.773 12.7004 107.095 12.3141C107.418 11.924 107.841 11.6202 108.367 11.4027C108.892 11.1814 109.507 11.0089 110.219 10.8776L113.771 10.1988C113.771 8.95737 113.527 8.046 113.043 7.47218C112.56 6.8946 111.783 6.60956 110.726 6.60956C109.871 6.60956 109.18 6.83459 108.648 7.2884C108.115 7.74221 107.781 8.38355 107.639 9.20865L106.784 9.12989C106.964 8.09476 107.399 7.2884 108.085 6.71458L108.082 6.71833ZM108.198 15.3557C108.704 15.7383 109.387 15.9108 110.257 15.8695C110.954 15.8433 111.577 15.6633 112.121 15.3257C112.665 14.9882 113.088 14.5381 113.392 13.968C113.696 13.398 113.842 12.7529 113.827 12.0253L113.809 10.9189L110.838 11.4815L110.392 11.5415C109.795 11.6577 109.289 11.7965 108.869 11.9578C108.449 12.119 108.104 12.3478 107.841 12.6479C107.575 12.9441 107.444 13.3342 107.444 13.8143C107.444 14.4631 107.695 14.9769 108.202 15.3557H108.198Z" fill="white"/>
<path d="M117.455 6.08447L117.552 9.26864L117.338 9.09237C117.56 8.09474 117.912 7.34464 118.407 6.84207C118.902 6.33951 119.54 6.08447 120.327 6.08447H121.048V6.78206H120.327C119.784 6.78206 119.307 6.93208 118.902 7.22837C118.493 7.52466 118.178 7.93722 117.95 8.46229C117.725 8.98735 117.608 9.57993 117.608 10.24V16.3721H116.832V6.08447H117.455Z" fill="white"/>
<path d="M122.986 6.08446L123.046 8.21849C123.226 7.5209 123.616 6.95082 124.209 6.51202C124.805 6.07321 125.495 5.85193 126.286 5.85193C126.973 5.85193 127.569 6.08821 128.072 6.56077C128.574 7.03333 128.919 7.68217 129.099 8.51103C129.306 7.68217 129.711 7.03333 130.314 6.56077C130.915 6.08821 131.623 5.85193 132.441 5.85193C133.049 5.85193 133.589 6.01695 134.061 6.34699C134.534 6.67704 134.898 7.1421 135.156 7.74593C135.415 8.34601 135.546 9.0286 135.546 9.7937V16.3721H134.77V10.2588C134.77 9.13361 134.549 8.24099 134.11 7.58091C133.671 6.92082 133.075 6.59078 132.325 6.59078C131.743 6.59078 131.218 6.7558 130.753 7.08584C130.288 7.41588 129.921 7.86969 129.658 8.44352C129.392 9.0211 129.261 9.65493 129.261 10.3563V16.3721H128.484V10.2175C128.484 9.47866 128.39 8.83732 128.203 8.286C128.015 7.73468 127.745 7.31462 127.397 7.02583C127.048 6.73704 126.628 6.59078 126.136 6.59078C125.555 6.59078 125.03 6.7483 124.565 7.06709C124.1 7.38588 123.729 7.81719 123.459 8.36851C123.189 8.91983 123.05 9.53491 123.05 10.2213V16.3758H122.273V6.08446H122.994H122.986Z" fill="white"/>
<path d="M138.378 6.71833C139.065 6.1445 139.942 5.85571 141.019 5.85571C142.301 5.85571 143.265 6.21951 143.91 6.94336C144.559 7.6672 144.882 8.74359 144.882 10.165V14.5719C144.882 14.9469 144.946 15.2207 145.077 15.3857C145.204 15.5545 145.414 15.637 145.699 15.637H146.048V16.3758H145.564C145.242 16.3646 144.968 16.2896 144.75 16.1508C144.533 16.012 144.36 15.7945 144.244 15.4907C144.128 15.1869 144.083 14.7744 144.109 14.2568C143.787 14.9807 143.292 15.547 142.624 15.9558C141.956 16.3646 141.199 16.5784 140.344 16.6046C139.309 16.5934 138.476 16.3308 137.85 15.817C137.223 15.307 136.908 14.6356 136.908 13.8068C136.908 13.1992 137.069 12.7004 137.392 12.3141C137.715 11.924 138.138 11.6202 138.663 11.4027C139.189 11.1814 139.804 11.0089 140.516 10.8776L144.068 10.1988C144.068 8.95737 143.824 8.046 143.34 7.47218C142.856 6.8946 142.08 6.60956 141.022 6.60956C140.167 6.60956 139.477 6.83459 138.945 7.2884C138.412 7.74221 138.078 8.38355 137.936 9.20865L137.081 9.12989C137.261 8.09476 137.696 7.2884 138.382 6.71458L138.378 6.71833ZM138.495 15.3557C139.001 15.7383 139.684 15.9108 140.554 15.8695C141.251 15.8433 141.874 15.6633 142.418 15.3257C142.962 14.9882 143.385 14.5381 143.689 13.968C143.993 13.398 144.139 12.7529 144.124 12.0253L144.105 10.9189L141.135 11.4815L140.689 11.5415C140.092 11.6577 139.586 11.7965 139.166 11.9578C138.746 12.119 138.401 12.3478 138.138 12.6479C137.872 12.9441 137.741 13.3342 137.741 13.8143C137.741 14.4631 137.992 14.9769 138.498 15.3557H138.495Z" fill="white"/>
<path d="M20.3503 0.5C15.5684 0.5 11.6904 4.37801 11.6904 9.15989C11.6904 13.9418 15.5684 17.8198 20.3503 17.8198C25.1322 17.8198 29.0102 13.9418 29.0102 9.15989C29.0102 4.37801 25.1322 0.5 20.3503 0.5ZM24.0296 9.84623C24.0296 10.1163 23.812 10.3338 23.542 10.3338H21.5205V12.3553C21.5205 12.6253 21.3029 12.8429 21.0329 12.8429H19.6602C19.3902 12.8429 19.1727 12.6253 19.1727 12.3553V10.3338H17.1511C16.8811 10.3338 16.6636 10.1163 16.6636 9.84623V8.47355C16.6636 8.20351 16.8811 7.98598 17.1511 7.98598H19.1727V5.96447C19.1727 5.69443 19.3902 5.4769 19.6602 5.4769H21.0329C21.3029 5.4769 21.5205 5.69443 21.5205 5.96447V7.98598H23.542C23.812 7.98598 24.0296 8.20351 24.0296 8.47355V9.84623Z" fill="#EB2D25"/>
<path d="M17.1585 10.3338H19.18V12.3553C19.18 12.6254 19.3975 12.8429 19.6675 12.8429H21.0402C21.3103 12.8429 21.5278 12.6254 21.5278 12.3553V10.3338H23.5493C23.8193 10.3338 24.0369 10.1163 24.0369 9.84625V8.47357C24.0369 8.20354 23.8193 7.98601 23.5493 7.98601H21.5278V5.96449C21.5278 5.69446 21.3103 5.47693 21.0402 5.47693H19.6675C19.3975 5.47693 19.18 5.69446 19.18 5.96449V7.98601H17.1585C16.8884 7.98601 16.6709 8.20354 16.6709 8.47357V9.84625C16.6709 10.1163 16.8884 10.3338 17.1585 10.3338Z" fill="white"/>
<path d="M3.88184 3.58285V5.25182C3.88184 5.43559 4.0281 5.58186 4.21188 5.58186H10.2052C10.3402 5.58186 10.4602 5.4956 10.509 5.37184C10.7265 4.80551 10.9928 4.26169 11.3041 3.74787C11.4353 3.53034 11.2741 3.25281 11.019 3.25281H4.21188C4.0281 3.25281 3.88184 3.39908 3.88184 3.58285Z" fill="white"/>
<path d="M9.51125 7.99719H0.330043C0.146269 7.99719 0 8.14346 0 8.32724V9.99621C0 10.18 0.146269 10.3262 0.330043 10.3262H9.51125C9.70628 10.3262 9.85255 10.1612 9.83755 9.96995C9.81504 9.70367 9.80379 9.43363 9.80379 9.1636C9.80379 8.89356 9.81504 8.62353 9.83755 8.35724C9.85255 8.16596 9.70628 8.00094 9.51125 8.00094V7.99719Z" fill="white"/>
<path d="M6.21469 13.0716V14.7406C6.21469 14.9244 6.36471 15.0706 6.54473 15.0706L10.9778 15.0631C11.2253 15.0631 11.3866 14.8006 11.2704 14.5831C11.0228 14.0993 10.674 13.3792 10.5053 12.9554C10.4565 12.8278 10.3327 12.7416 10.1977 12.7416H6.54098C6.35721 12.7416 6.21094 12.8878 6.21094 13.0716H6.21469Z" fill="white"/>
</g>
<defs>
<clipPath id="clip0_2447_2815">
<rect width="146.048" height="19" fill="white" transform="translate(0 0.5)"/>
</clipPath>
</defs>
</svg>
