<svg width="151" height="51" viewBox="0 0 151 51" fill="none" xmlns="http://www.w3.org/2000/svg">
<g clip-path="url(#clip0_2143_33526)">
<path d="M138.168 0.360514H12.4183C11.96 0.360514 11.5071 0.360514 11.0499 0.363007C10.6672 0.3655 10.2876 0.372742 9.90124 0.378837C9.06189 0.388687 8.2245 0.462323 7.39637 0.599106C6.5694 0.738867 5.76834 1.00236 5.02027 1.38066C4.27312 1.76217 3.59043 2.2579 2.99696 2.84986C2.40038 3.44016 1.90308 4.12247 1.52419 4.87055C1.14425 5.61714 0.8808 6.41718 0.742937 7.24304C0.603764 8.06785 0.528873 8.90218 0.518937 9.73853C0.507337 10.1207 0.506112 10.5042 0.5 10.8864V39.6983C0.506112 40.0853 0.507337 40.4603 0.518937 40.8475C0.528876 41.6838 0.603767 42.5181 0.742937 43.3428C0.88042 44.1692 1.14388 44.9697 1.52419 45.7165C1.90291 46.4622 2.40027 47.1417 2.99696 47.7288C3.58818 48.3234 4.27131 48.8194 5.02027 49.198C5.76833 49.5773 6.56931 49.8424 7.39637 49.9843C8.22464 50.12 9.06194 50.1937 9.90124 50.2047C10.2876 50.2132 10.6672 50.218 11.0499 50.218C11.5071 50.2205 11.96 50.2205 12.4183 50.2205H138.168C138.618 50.2205 139.074 50.2205 139.523 50.218C139.904 50.218 140.295 50.2132 140.676 50.2047C141.513 50.1942 142.349 50.1206 143.176 49.9843C144.005 49.8414 144.809 49.5764 145.561 49.198C146.309 48.8192 146.992 48.3232 147.583 47.7288C148.178 47.1394 148.676 46.4604 149.06 45.7165C149.437 44.9691 149.698 44.1687 149.833 43.3428C149.973 42.5179 150.05 41.6838 150.065 40.8475C150.07 40.4603 150.07 40.0853 150.07 39.6983C150.08 39.2455 150.08 38.7951 150.08 38.3349V12.2473C150.08 11.7908 150.08 11.338 150.07 10.8864C150.07 10.5042 150.07 10.1207 150.065 9.73848C150.05 8.90206 149.973 8.06792 149.833 7.24299C149.698 6.41761 149.437 5.61763 149.06 4.8705C148.288 3.37106 147.064 2.15052 145.561 1.38055C144.809 1.00317 144.005 0.739749 143.176 0.598994C142.349 0.461608 141.514 0.387946 140.676 0.378663C140.295 0.37258 139.904 0.365275 139.523 0.362845C139.074 0.360352 138.618 0.360514 138.168 0.360514Z" fill="#A6A6A6"/>
<path d="M11.0546 49.1298C10.6738 49.1298 10.3021 49.1249 9.92425 49.1165C9.14148 49.1063 8.36054 49.0383 7.58783 48.9132C6.86732 48.7894 6.16933 48.5592 5.5169 48.2302C4.87046 47.9039 4.28084 47.476 3.77066 46.963C3.25308 46.456 2.82218 45.868 2.49502 45.2223C2.16425 44.5723 1.93535 43.8757 1.81627 43.1566C1.68767 42.3839 1.6181 41.6026 1.60814 40.8194C1.60022 40.5565 1.58984 39.6812 1.58984 39.6812V10.8864C1.58984 10.8864 1.60089 10.0245 1.60821 9.77131C1.61774 8.98936 1.68691 8.20926 1.81512 7.43778C1.93442 6.7167 2.1635 6.01803 2.49444 5.36597C2.8204 4.72067 3.24891 4.13222 3.76337 3.62342C4.27725 3.10979 4.86874 2.67973 5.51629 2.34891C6.16722 2.02094 6.86388 1.79238 7.58294 1.67089C8.35819 1.54446 9.14184 1.4761 9.92733 1.46639L11.0552 1.45117H139.516L140.657 1.467C141.436 1.47623 142.212 1.54397 142.98 1.66967C143.707 1.79268 144.41 2.02284 145.069 2.35257C146.366 3.01925 147.422 4.07401 148.088 5.36901C148.413 6.01658 148.639 6.70954 148.757 7.42439C148.886 8.20221 148.959 8.98843 148.974 9.7768C148.977 10.1298 148.977 10.509 148.977 10.8864C148.987 11.3538 148.987 11.7987 148.987 12.2473V38.3349C148.987 38.7877 148.987 39.2296 148.977 39.6751C148.977 40.0805 148.977 40.4518 148.973 40.834C148.958 41.6083 148.887 42.3805 148.759 43.1444C148.642 43.8686 148.415 44.5707 148.084 45.226C147.754 45.8647 147.326 46.4477 146.814 46.9533C146.304 47.4691 145.713 47.8994 145.065 48.2278C144.409 48.5594 143.706 48.7904 142.98 48.9132C142.208 49.039 141.427 49.107 140.644 49.1165C140.278 49.1249 139.894 49.1298 139.522 49.1298L138.167 49.1323L11.0546 49.1298Z" fill="black"/>
<path d="M31.4615 25.6658C31.4749 24.6254 31.752 23.6053 32.2671 22.7003C32.7821 21.7954 33.5183 21.0352 34.4072 20.4902C33.8425 19.686 33.0976 19.0242 32.2315 18.5573C31.3655 18.0905 30.4022 17.8314 29.4182 17.8007C27.3192 17.581 25.2842 19.0532 24.2146 19.0532C23.1243 19.0532 21.4774 17.8225 19.704 17.8589C18.5569 17.8958 17.439 18.2285 16.4591 18.8244C15.4793 19.4203 14.6709 20.2591 14.1128 21.2592C11.6953 25.433 13.4986 31.5671 15.8143 34.9408C16.973 36.5929 18.3271 38.4383 20.0989 38.3728C21.8327 38.3011 22.4802 37.2703 24.5731 37.2703C26.6466 37.2703 27.2541 38.3728 29.0619 38.3312C30.9223 38.3011 32.0945 36.6718 33.2125 35.0041C34.045 33.827 34.6856 32.526 35.1105 31.1493C34.0296 30.6934 33.1072 29.9304 32.4583 28.9552C31.8094 27.9801 31.4627 26.8361 31.4615 25.6658Z" fill="white"/>
<path d="M28.0465 15.5815C29.0609 14.3672 29.5606 12.8063 29.4396 11.2305C27.8898 11.3928 26.4583 12.1314 25.4302 13.2992C24.9275 13.8697 24.5425 14.5333 24.2972 15.2523C24.0519 15.9712 23.9511 16.7313 24.0005 17.4891C24.7757 17.4971 25.5426 17.3296 26.2434 16.9991C26.9442 16.6687 27.5607 16.184 28.0465 15.5815Z" fill="white"/>
<path d="M53.3789 34.1898H47.4622L46.0413 38.3736H43.5352L49.1394 22.8945H51.7432L57.3474 38.3736H54.7986L53.3789 34.1898ZM48.0749 32.2591H52.7649L50.4529 25.4691H50.3882L48.0749 32.2591Z" fill="white"/>
<path d="M69.4514 32.7313C69.4514 36.2383 67.5691 38.4915 64.7286 38.4915C64.009 38.529 63.2934 38.3637 62.6636 38.0145C62.0339 37.6653 61.5155 37.1463 61.1678 36.517H61.114V42.1068H58.791V27.0879H61.0396V28.965H61.0823C61.446 28.3387 61.9732 27.8224 62.6077 27.4711C63.2422 27.1197 63.9604 26.9465 64.6858 26.9699C67.5581 26.9699 69.4514 29.234 69.4514 32.7313ZM67.0637 32.7313C67.0637 30.4464 65.8797 28.9443 64.073 28.9443C62.2981 28.9443 61.1043 30.4781 61.1043 32.7313C61.1043 35.0052 62.2981 36.528 64.073 36.528C65.8797 36.528 67.0637 35.0368 67.0637 32.7313Z" fill="white"/>
<path d="M81.9065 32.7313C81.9065 36.2383 80.0242 38.4915 77.1836 38.4915C76.4641 38.529 75.7484 38.3637 75.1187 38.0145C74.489 37.6653 73.9706 37.1463 73.6228 36.517H73.5691V42.1068H71.2461V27.0879H73.4946V28.965H73.5373C73.901 28.3387 74.4282 27.8224 75.0627 27.4711C75.6973 27.1197 76.4155 26.9465 77.1409 26.9699C80.0132 26.9699 81.9065 29.234 81.9065 32.7313ZM79.5188 32.7313C79.5188 30.4464 78.3347 28.9443 76.5281 28.9443C74.7532 28.9443 73.5594 30.4781 73.5594 32.7313C73.5594 35.0052 74.7532 36.528 76.5281 36.528C78.3348 36.528 79.5188 35.0368 79.5188 32.7313Z" fill="white"/>
<path d="M90.1397 34.061C90.3118 35.596 91.8072 36.6039 93.8506 36.6039C95.8086 36.6039 97.2173 35.596 97.2173 34.2119C97.2173 33.0104 96.3677 32.291 94.356 31.798L92.3443 31.3148C89.4939 30.6282 88.1707 29.2989 88.1707 27.1419C88.1707 24.4712 90.5047 22.6367 93.8189 22.6367C97.0989 22.6367 99.3474 24.4712 99.4231 27.1419H97.0781C96.9378 25.5972 95.6572 24.6647 93.7859 24.6647C91.9146 24.6647 90.634 25.6081 90.634 26.9812C90.634 28.0756 91.4519 28.7195 93.4526 29.2125L95.1628 29.6312C98.3476 30.3823 99.6709 31.658 99.6709 33.9221C99.6709 36.8181 97.3577 38.6318 93.6785 38.6318C90.2361 38.6318 87.9119 36.8607 87.7617 34.0609L90.1397 34.061Z" fill="white"/>
<path d="M104.685 24.418V27.0887H106.837V28.9231H104.685V35.1447C104.685 36.1112 105.115 36.5616 106.062 36.5616C106.317 36.5572 106.572 36.5393 106.826 36.508V38.3315C106.4 38.4108 105.968 38.4466 105.535 38.4386C103.244 38.4386 102.351 37.5804 102.351 35.3918V28.9231H100.705V27.0887H102.351V24.418H104.685Z" fill="white"/>
<path d="M108.082 32.7313C108.082 29.1805 110.179 26.9492 113.449 26.9492C116.731 26.9492 118.818 29.1805 118.818 32.7313C118.818 36.2919 116.742 38.5134 113.449 38.5134C110.158 38.5134 108.082 36.2919 108.082 32.7313ZM116.451 32.7313C116.451 30.2955 115.332 28.8579 113.449 28.8579C111.567 28.8579 110.449 30.3065 110.449 32.7313C110.449 35.1768 111.567 36.6035 113.449 36.6035C115.332 36.6035 116.451 35.1768 116.451 32.7313Z" fill="white"/>
<path d="M120.734 27.0888H122.95V29.0097H123.004C123.154 28.4097 123.506 27.8796 124.002 27.5082C124.498 27.1369 125.106 26.9471 125.726 26.9707C125.994 26.9698 126.261 26.9988 126.522 27.0571V29.2239C126.184 29.1209 125.831 29.0736 125.478 29.0839C125.141 29.0703 124.804 29.1296 124.492 29.2579C124.18 29.3861 123.899 29.5802 123.669 29.8269C123.439 30.0736 123.265 30.3669 123.16 30.6869C123.054 31.0068 123.019 31.3457 123.057 31.6804V38.3742H120.734L120.734 27.0888Z" fill="white"/>
<path d="M137.232 35.0588C136.92 37.1075 134.919 38.5134 132.359 38.5134C129.067 38.5134 127.023 36.3138 127.023 32.7849C127.023 29.245 129.078 26.9492 132.261 26.9492C135.393 26.9492 137.362 29.0941 137.362 32.5159V33.3095H129.368V33.4495C129.332 33.8649 129.384 34.2833 129.521 34.677C129.659 35.0706 129.879 35.4306 130.167 35.733C130.455 36.0353 130.804 36.2731 131.191 36.4305C131.579 36.588 131.995 36.6614 132.413 36.6461C132.962 36.6974 133.513 36.5706 133.984 36.2846C134.454 35.9986 134.82 35.5687 135.026 35.0588L137.232 35.0588ZM129.379 31.6905H135.037C135.058 31.3171 135.001 30.9434 134.871 30.5929C134.74 30.2423 134.538 29.9226 134.277 29.6536C134.016 29.3846 133.703 29.1723 133.356 29.03C133.009 28.8876 132.636 28.8182 132.261 28.8263C131.883 28.824 131.508 28.8965 131.158 29.0395C130.808 29.1826 130.49 29.3933 130.222 29.6596C129.954 29.9259 129.742 30.2425 129.597 30.591C129.452 30.9396 129.378 31.3133 129.379 31.6905Z" fill="white"/>
<path d="M47.782 11.2438C48.269 11.2089 48.7577 11.2823 49.2128 11.4586C49.668 11.6349 50.0782 11.9097 50.4139 12.2633C50.7497 12.6168 51.0025 13.0402 51.1543 13.503C51.306 13.9658 51.3529 14.4564 51.2915 14.9395C51.2915 17.3156 50.0037 18.6815 47.782 18.6815H45.0879V11.2438H47.782ZM46.2463 17.6296H47.6526C48.0006 17.6504 48.3488 17.5935 48.672 17.4631C48.9952 17.3327 49.2851 17.132 49.5208 16.8758C49.7564 16.6196 49.9317 16.3142 50.0341 15.9818C50.1364 15.6495 50.1631 15.2986 50.1123 14.9546C50.1594 14.612 50.13 14.2633 50.0261 13.9334C49.9222 13.6035 49.7464 13.3006 49.5113 13.0464C49.2762 12.7922 48.9877 12.593 48.6663 12.4631C48.345 12.3331 47.9988 12.2757 47.6526 12.2949H46.2463V17.6296Z" fill="white"/>
<path d="M52.6004 15.8723C52.5651 15.5034 52.6074 15.1312 52.7247 14.7796C52.842 14.428 53.0317 14.1048 53.2816 13.8306C53.5315 13.5563 53.8362 13.3373 54.176 13.1873C54.5158 13.0374 54.8833 12.96 55.2549 12.96C55.6265 12.96 55.9939 13.0374 56.3338 13.1873C56.6736 13.3373 56.9782 13.5563 57.2281 13.8306C57.4781 14.1048 57.6678 14.428 57.7851 14.7796C57.9024 15.1312 57.9447 15.5034 57.9093 15.8723C57.9453 16.2415 57.9035 16.6142 57.7865 16.9663C57.6695 17.3185 57.48 17.6424 57.23 17.9171C56.98 18.1919 56.6751 18.4114 56.335 18.5617C55.9948 18.7119 55.6269 18.7895 55.2549 18.7895C54.8828 18.7895 54.5149 18.7119 54.1748 18.5617C53.8346 18.4114 53.5297 18.1919 53.2798 17.9171C53.0298 17.6424 52.8402 17.3185 52.7232 16.9663C52.6062 16.6142 52.5644 16.2415 52.6004 15.8723ZM56.7667 15.8723C56.7667 14.6556 56.2186 13.9441 55.2567 13.9441C54.2911 13.9441 53.7479 14.6556 53.7479 15.8723C53.7479 17.0987 54.2912 17.8047 55.2567 17.8047C56.2186 17.8047 56.7667 17.0938 56.7667 15.8723Z" fill="white"/>
<path d="M64.9658 18.6813H63.8135L62.6501 14.5474H62.5623L61.4038 18.6813H60.2625L58.7109 13.0684H59.8377L60.846 17.3513H60.929L62.0862 13.0684H63.1519L64.3091 17.3513H64.397L65.4004 13.0684H66.5112L64.9658 18.6813Z" fill="white"/>
<path d="M67.8164 13.068H68.8857V13.9596H68.9688C69.1096 13.6394 69.3471 13.3709 69.6482 13.1917C69.9493 13.0124 70.2989 12.9313 70.6484 12.9596C70.9223 12.9391 71.1973 12.9803 71.4531 13.0801C71.7088 13.18 71.9387 13.3359 72.1259 13.5364C72.313 13.7369 72.4524 13.9768 72.5339 14.2383C72.6154 14.4999 72.6369 14.7763 72.5967 15.0473V18.6808H71.4858V15.3254C71.4858 14.4234 71.0928 13.9749 70.2712 13.9749C70.0853 13.9662 69.8997 13.9978 69.7271 14.0674C69.5545 14.137 69.3991 14.2429 69.2714 14.378C69.1438 14.5131 69.0469 14.6742 68.9875 14.8501C68.9281 15.026 68.9075 15.2127 68.9272 15.3972V18.6809H67.8164L67.8164 13.068Z" fill="white"/>
<path d="M74.3672 10.877H75.478V18.681H74.3672V10.877Z" fill="white"/>
<path d="M77.0223 15.8724C76.9869 15.5035 77.0293 15.1313 77.1466 14.7797C77.2639 14.4281 77.4537 14.1048 77.7036 13.8306C77.9536 13.5564 78.2582 13.3373 78.5981 13.1873C78.9379 13.0374 79.3054 12.96 79.677 12.96C80.0486 12.96 80.4161 13.0374 80.756 13.1873C81.0958 13.3373 81.4005 13.5564 81.6504 13.8306C81.9004 14.1048 82.0901 14.4281 82.2074 14.7797C82.3248 15.1313 82.3671 15.5035 82.3317 15.8724C82.3677 16.2416 82.3259 16.6143 82.2089 16.9665C82.0918 17.3186 81.9022 17.6425 81.6522 17.9172C81.4022 18.192 81.0973 18.4115 80.7571 18.5617C80.417 18.712 80.0491 18.7896 79.677 18.7896C79.305 18.7896 78.9371 18.712 78.5969 18.5617C78.2567 18.4115 77.9518 18.192 77.7018 17.9172C77.4518 17.6425 77.2622 17.3186 77.1452 16.9665C77.0281 16.6143 76.9863 16.2416 77.0223 15.8724ZM81.1885 15.8724C81.1885 14.6557 80.6404 13.9442 79.6785 13.9442C78.713 13.9442 78.1698 14.6557 78.1698 15.8724C78.1698 17.0988 78.713 17.8048 79.6785 17.8048C80.6405 17.8048 81.1885 17.0939 81.1885 15.8724Z" fill="white"/>
<path d="M83.5 17.0939C83.5 16.0835 84.2544 15.501 85.5935 15.4183L87.1182 15.3306V14.8461C87.1182 14.2533 86.7251 13.9186 85.9658 13.9186C85.3457 13.9186 84.916 14.1456 84.7927 14.5424H83.7173C83.8308 13.5783 84.7402 12.96 86.0171 12.96C87.4282 12.96 88.2241 13.6605 88.2241 14.8461V18.6812H87.1548V17.8924H87.0669C86.8885 18.1753 86.638 18.406 86.341 18.5608C86.0439 18.7157 85.711 18.7891 85.3762 18.7737C85.1399 18.7982 84.9011 18.773 84.6752 18.6999C84.4492 18.6267 84.2411 18.5071 84.0644 18.3489C83.8876 18.1906 83.746 17.9972 83.6488 17.781C83.5516 17.5648 83.5009 17.3308 83.5 17.0939ZM87.1182 16.6142V16.145L85.7437 16.2326C84.9685 16.2844 84.6169 16.5473 84.6169 17.0421C84.6169 17.5473 85.0564 17.8413 85.6607 17.8413C85.8377 17.8591 86.0166 17.8413 86.1866 17.7888C86.3566 17.7364 86.5143 17.6503 86.6503 17.5359C86.7863 17.4214 86.8978 17.2808 86.9781 17.1225C87.0585 16.9641 87.1061 16.7913 87.1182 16.6142Z" fill="white"/>
<path d="M89.6836 15.8721C89.6836 14.0985 90.5979 12.975 92.02 12.975C92.3718 12.9588 92.7209 13.0428 93.0266 13.2172C93.3322 13.3916 93.5818 13.6491 93.7461 13.9597H93.8291V10.877H94.9399V18.681H93.8755V17.7942H93.7876C93.6106 18.1027 93.3523 18.357 93.0408 18.5296C92.7292 18.7022 92.3762 18.7866 92.02 18.7735C90.5881 18.7735 89.6836 17.6499 89.6836 15.8721ZM90.8311 15.8721C90.8311 17.0626 91.3938 17.779 92.335 17.779C93.2713 17.779 93.8499 17.0523 93.8499 15.877C93.8499 14.7072 93.2652 13.9701 92.335 13.9701C91.3999 13.9701 90.8311 14.6913 90.8311 15.8721Z" fill="white"/>
<path d="M99.536 15.8723C99.5006 15.5034 99.5429 15.1312 99.6602 14.7796C99.7775 14.428 99.9672 14.1048 100.217 13.8306C100.467 13.5563 100.772 13.3373 101.112 13.1873C101.451 13.0374 101.819 12.96 102.19 12.96C102.562 12.96 102.929 13.0374 103.269 13.1873C103.609 13.3373 103.914 13.5563 104.164 13.8306C104.414 14.1048 104.603 14.428 104.721 14.7796C104.838 15.1312 104.88 15.5034 104.845 15.8723C104.881 16.2415 104.839 16.6142 104.722 16.9663C104.605 17.3185 104.416 17.6424 104.166 17.9171C103.916 18.1919 103.611 18.4114 103.271 18.5617C102.93 18.7119 102.562 18.7895 102.19 18.7895C101.818 18.7895 101.45 18.7119 101.11 18.5617C100.77 18.4114 100.465 18.1919 100.215 17.9171C99.9653 17.6424 99.7757 17.3185 99.6587 16.9663C99.5417 16.6142 99.4999 16.2415 99.536 15.8723ZM103.702 15.8723C103.702 14.6556 103.154 13.9441 102.192 13.9441C101.227 13.9441 100.683 14.6556 100.683 15.8723C100.683 17.0987 101.227 17.8047 102.192 17.8047C103.154 17.8047 103.702 17.0938 103.702 15.8723Z" fill="white"/>
<path d="M106.336 13.068H107.405V13.9596H107.488C107.629 13.6394 107.867 13.3709 108.168 13.1917C108.469 13.0124 108.818 12.9313 109.168 12.9596C109.442 12.9391 109.717 12.9803 109.973 13.0801C110.228 13.18 110.458 13.3359 110.645 13.5364C110.832 13.7369 110.972 13.9768 111.053 14.2383C111.135 14.4999 111.156 14.7763 111.116 15.0473V18.6808H110.005V15.3254C110.005 14.4234 109.612 13.9749 108.791 13.9749C108.605 13.9662 108.419 13.9978 108.247 14.0674C108.074 14.137 107.919 14.2429 107.791 14.378C107.663 14.5131 107.566 14.6742 107.507 14.8501C107.448 15.026 107.427 15.2127 107.447 15.3972V18.6809H106.336V13.068Z" fill="white"/>
<path d="M117.392 11.6709V13.0939H118.612V14.027H117.392V16.9131C117.392 17.5011 117.635 17.7585 118.188 17.7585C118.33 17.7581 118.471 17.7496 118.612 17.733V18.6557C118.412 18.6913 118.21 18.7102 118.008 18.7123C116.772 18.7123 116.28 18.2789 116.28 17.1968V14.0269H115.387V13.0939H116.28V11.6709H117.392Z" fill="white"/>
<path d="M120.131 10.877H121.232V13.9701H121.32C121.467 13.6468 121.712 13.3769 122.019 13.1969C122.326 13.017 122.681 12.9359 123.036 12.9646C123.309 12.9498 123.581 12.9952 123.834 13.0974C124.087 13.1997 124.314 13.3564 124.499 13.5562C124.684 13.7561 124.823 13.9942 124.905 14.2537C124.987 14.5131 125.011 14.7874 124.975 15.0571V18.681H123.863V15.3304C123.863 14.4339 123.444 13.9798 122.659 13.9798C122.468 13.9642 122.276 13.9904 122.096 14.0565C121.917 14.1226 121.754 14.2271 121.619 14.3627C121.484 14.4982 121.38 14.6615 121.315 14.8412C121.25 15.0209 121.225 15.2125 121.242 15.4028V18.681H120.131L120.131 10.877Z" fill="white"/>
<path d="M131.45 17.1658C131.299 17.6788 130.972 18.1225 130.526 18.4193C130.08 18.7162 129.544 18.8473 129.011 18.7896C128.64 18.7994 128.271 18.7286 127.931 18.5821C127.59 18.4356 127.286 18.2169 127.038 17.9413C126.791 17.6656 126.607 17.3396 126.498 16.9858C126.39 16.632 126.36 16.2589 126.411 15.8925C126.361 15.5249 126.392 15.1511 126.5 14.7962C126.608 14.4414 126.791 14.1138 127.037 13.8358C127.283 13.5577 127.587 13.3356 127.926 13.1845C128.266 13.0334 128.634 12.9569 129.006 12.9601C130.572 12.9601 131.517 14.0271 131.517 15.7896V16.1761H127.542V16.2382C127.525 16.4442 127.551 16.6515 127.619 16.8469C127.686 17.0423 127.794 17.2214 127.935 17.3728C128.076 17.5242 128.248 17.6445 128.438 17.7261C128.629 17.8076 128.834 17.8485 129.041 17.8462C129.307 17.878 129.576 17.8303 129.815 17.7091C130.053 17.588 130.25 17.3988 130.38 17.1657L131.45 17.1658ZM127.542 15.3569H130.385C130.399 15.1685 130.374 14.9793 130.31 14.8014C130.246 14.6235 130.146 14.4608 130.015 14.3239C129.885 14.187 129.727 14.0788 129.552 14.0063C129.377 13.9337 129.189 13.8985 129 13.9028C128.808 13.9004 128.617 13.9364 128.439 14.0086C128.261 14.0809 128.099 14.1879 127.964 14.3234C127.828 14.4589 127.721 14.6202 127.648 14.7977C127.576 14.9752 127.54 15.1653 127.542 15.3569Z" fill="white"/>
</g>
<defs>
<clipPath id="clip0_2143_33526">
<rect width="149.58" height="49.86" fill="white" transform="translate(0.5 0.360352)"/>
</clipPath>
</defs>
</svg>
