<svg width="21" height="19" viewBox="0 0 21 19" fill="none" xmlns="http://www.w3.org/2000/svg">
<g clip-path="url(#clip0_2281_2655)">
<path d="M3.17578 18.0537L4.37074 13.6882C3.63336 12.4104 3.24591 10.9619 3.24661 9.47648C3.24874 4.83266 7.02769 1.05371 11.6708 1.05371C13.924 1.05442 16.0391 1.93204 17.63 3.52437C19.2202 5.1167 20.0957 7.2332 20.095 9.48428C20.0929 14.1288 16.3139 17.9078 11.6708 17.9078C10.2612 17.907 8.87219 17.5536 7.64181 16.8821L3.17578 18.0537ZM7.84865 15.3571C9.03581 16.0618 10.1691 16.484 11.668 16.4847C15.527 16.4847 18.6705 13.344 18.6727 9.48286C18.6741 5.61395 15.5454 2.47746 11.6736 2.47604C7.81181 2.47604 4.67036 5.61678 4.66894 9.47719C4.66824 11.0532 5.13007 12.2333 5.90569 13.4679L5.19807 16.0519L7.84865 15.3571ZM15.9144 11.4867C15.862 11.3989 15.7218 11.3465 15.5107 11.2409C15.3003 11.1354 14.2654 10.6261 14.072 10.556C13.8794 10.4859 13.7391 10.4504 13.5982 10.6615C13.4579 10.8719 13.0542 11.3465 12.9316 11.4867C12.8091 11.627 12.6858 11.6447 12.4755 11.5391C12.2651 11.4336 11.5865 11.2119 10.7826 10.4944C10.1571 9.93619 9.73422 9.24698 9.61168 9.0359C9.48914 8.82553 9.59893 8.71149 9.70377 8.60665C9.79868 8.51244 9.91414 8.36086 10.0197 8.23761C10.1266 8.11578 10.1613 8.02795 10.2322 7.88699C10.3023 7.74674 10.2676 7.62349 10.2145 7.51795C10.1613 7.41311 9.7406 6.37682 9.56564 5.95537C9.39423 5.54524 9.22068 5.60049 9.09177 5.59412L8.68802 5.58703C8.54777 5.58703 8.31969 5.63945 8.12702 5.85053C7.93435 6.06162 7.39036 6.5702 7.39036 7.60649C7.39036 8.64278 8.14473 9.64365 8.24956 9.7839C8.3551 9.92415 9.73352 12.0506 11.8451 12.9622C12.3473 13.1789 12.7397 13.3086 13.045 13.4056C13.5493 13.5657 14.0083 13.543 14.371 13.4892C14.7754 13.429 15.6162 12.9799 15.7919 12.4883C15.9675 11.996 15.9675 11.5746 15.9144 11.4867Z" fill="#6B7589"/>
</g>
<defs>
<clipPath id="clip0_2281_2655">
<rect width="18" height="18" fill="white" transform="translate(2.5 0.290039)"/>
</clipPath>
</defs>
</svg>
