<svg width="34" height="27" viewBox="0 0 34 27" fill="none" xmlns="http://www.w3.org/2000/svg">
<g clip-path="url(#clip0_2281_2536)">
<path d="M10.6988 26.4C22.9504 26.4 29.6543 16.2402 29.6543 7.44454C29.6543 7.15869 29.6543 6.87284 29.6414 6.587C30.9405 5.65157 32.0709 4.4693 32.9673 3.1311C31.7721 3.66378 30.4858 4.01457 29.1346 4.18346C30.5118 3.36496 31.5642 2.05275 32.0709 0.4937C30.7846 1.26023 29.3555 1.80591 27.8354 2.10473C26.6142 0.80551 24.8862 0 22.9764 0C19.2996 0 16.3114 2.98819 16.3114 6.66494C16.3114 7.18463 16.3764 7.69138 16.4803 8.18506C10.9457 7.91221 6.03464 5.24882 2.74764 1.22126C2.17598 2.20866 1.85118 3.35197 1.85118 4.57323C1.85118 6.88585 3.03347 8.92564 4.81338 10.1209C3.72205 10.0819 2.69567 9.78305 1.79921 9.28937C1.79921 9.31537 1.79921 9.34138 1.79921 9.38032C1.79921 12.6023 4.09882 15.3047 7.13901 15.9154C6.58032 16.0713 5.99567 16.1493 5.38504 16.1493C4.9563 16.1493 4.54055 16.1102 4.13779 16.0323C4.98228 18.6827 7.45079 20.6055 10.361 20.6575C8.07436 22.4504 5.20315 23.5157 2.08504 23.5157C1.55236 23.5157 1.01968 23.4898 0.5 23.4248C3.43622 25.2957 6.94409 26.4 10.6988 26.4Z" fill="#55ACEE"/>
</g>
<defs>
<clipPath id="clip0_2281_2536">
<rect width="33" height="26.4" fill="white" transform="translate(0.5)"/>
</clipPath>
</defs>
</svg>
