<svg width="27" height="27" viewBox="0 0 27 27" fill="none" xmlns="http://www.w3.org/2000/svg">
<g clip-path="url(#clip0_2439_26270)">
<path d="M13.2 2.37703C16.7269 2.37703 17.1445 2.3925 18.5316 2.45437C19.8206 2.51109 20.5167 2.72766 20.9808 2.90813C21.5944 3.14531 22.0378 3.43406 22.4967 3.89297C22.9608 4.35703 23.2444 4.79531 23.4816 5.40891C23.662 5.87297 23.8786 6.57422 23.9353 7.85812C23.9972 9.25031 24.0127 9.66797 24.0127 13.1897C24.0127 16.7166 23.9972 17.1342 23.9353 18.5213C23.8786 19.8103 23.662 20.5064 23.4816 20.9705C23.2444 21.5841 22.9556 22.0275 22.4967 22.4864C22.0327 22.9505 21.5944 23.2341 20.9808 23.4713C20.5167 23.6517 19.8155 23.8683 18.5316 23.925C17.1394 23.9869 16.7217 24.0023 13.2 24.0023C9.67313 24.0023 9.25547 23.9869 7.86844 23.925C6.57938 23.8683 5.88328 23.6517 5.41922 23.4713C4.80563 23.2341 4.36219 22.9453 3.90328 22.4864C3.43922 22.0223 3.15563 21.5841 2.91844 20.9705C2.73797 20.5064 2.52141 19.8052 2.46469 18.5213C2.40281 17.1291 2.38734 16.7114 2.38734 13.1897C2.38734 9.66281 2.40281 9.24516 2.46469 7.85812C2.52141 6.56906 2.73797 5.87297 2.91844 5.40891C3.15563 4.79531 3.44438 4.35188 3.90328 3.89297C4.36734 3.42891 4.80563 3.14531 5.41922 2.90813C5.88328 2.72766 6.58453 2.51109 7.86844 2.45437C9.25547 2.3925 9.67313 2.37703 13.2 2.37703ZM13.2 0C9.61641 0 9.16781 0.0154687 7.76016 0.0773438C6.35766 0.139219 5.39344 0.366094 4.55813 0.690937C3.68672 1.03125 2.94938 1.47984 2.21719 2.21719C1.47984 2.94938 1.03125 3.68672 0.690938 4.55297C0.366094 5.39344 0.139219 6.3525 0.0773438 7.755C0.0154688 9.16781 0 9.61641 0 13.2C0 16.7836 0.0154688 17.2322 0.0773438 18.6398C0.139219 20.0423 0.366094 21.0066 0.690938 21.8419C1.03125 22.7133 1.47984 23.4506 2.21719 24.1828C2.94938 24.915 3.68672 25.3687 4.55297 25.7039C5.39344 26.0288 6.3525 26.2556 7.755 26.3175C9.16266 26.3794 9.61125 26.3948 13.1948 26.3948C16.7784 26.3948 17.227 26.3794 18.6347 26.3175C20.0372 26.2556 21.0014 26.0288 21.8367 25.7039C22.703 25.3687 23.4403 24.915 24.1725 24.1828C24.9047 23.4506 25.3584 22.7133 25.6936 21.847C26.0184 21.0066 26.2453 20.0475 26.3072 18.645C26.3691 17.2373 26.3845 16.7888 26.3845 13.2052C26.3845 9.62156 26.3691 9.17297 26.3072 7.76531C26.2453 6.36281 26.0184 5.39859 25.6936 4.56328C25.3688 3.68672 24.9202 2.94938 24.1828 2.21719C23.4506 1.485 22.7133 1.03125 21.847 0.696094C21.0066 0.37125 20.0475 0.144375 18.645 0.0825C17.2322 0.0154688 16.7836 0 13.2 0Z" fill="url(#paint0_linear_2439_26270)"/>
<path d="M13.2004 6.41992C9.45695 6.41992 6.41992 9.45695 6.41992 13.2004C6.41992 16.9438 9.45695 19.9809 13.2004 19.9809C16.9438 19.9809 19.9809 16.9438 19.9809 13.2004C19.9809 9.45695 16.9438 6.41992 13.2004 6.41992ZM13.2004 17.5987C10.7718 17.5987 8.80211 15.629 8.80211 13.2004C8.80211 10.7718 10.7718 8.80211 13.2004 8.80211C15.629 8.80211 17.5987 10.7718 17.5987 13.2004C17.5987 15.629 15.629 17.5987 13.2004 17.5987Z" fill="url(#paint1_linear_2439_26270)"/>
<path d="M21.832 6.15133C21.832 7.02789 21.1204 7.7343 20.249 7.7343C19.3724 7.7343 18.666 7.02274 18.666 6.15133C18.666 5.27477 19.3776 4.56836 20.249 4.56836C21.1204 4.56836 21.832 5.27992 21.832 6.15133Z" fill="url(#paint2_linear_2439_26270)"/>
</g>
<defs>
<linearGradient id="paint0_linear_2439_26270" x1="-13.5" y1="-11" x2="26.3845" y2="24.6479" gradientUnits="userSpaceOnUse">
<stop stop-color="#0099FF"/>
<stop offset="0.48649" stop-color="#A033FF"/>
<stop offset="0.75" stop-color="#FF5280"/>
<stop offset="1" stop-color="#FF7061"/>
</linearGradient>
<linearGradient id="paint1_linear_2439_26270" x1="-2" y1="-1.5" x2="18.1844" y2="19.9809" gradientUnits="userSpaceOnUse">
<stop stop-color="#0099FF"/>
<stop offset="0.5" stop-color="#A033FF"/>
<stop offset="0.75" stop-color="#FF5280"/>
<stop offset="1" stop-color="#FF7061"/>
</linearGradient>
<linearGradient id="paint2_linear_2439_26270" x1="20.249" y1="4.56836" x2="20.249" y2="7.7343" gradientUnits="userSpaceOnUse">
<stop offset="0.75" stop-color="#FF5280"/>
<stop offset="1" stop-color="#FF7061"/>
</linearGradient>
<clipPath id="clip0_2439_26270">
<rect width="26.4" height="26.4" fill="white"/>
</clipPath>
</defs>
</svg>
