<svg width="41" height="41" viewBox="0 0 41 41" fill="none" xmlns="http://www.w3.org/2000/svg">
<g clip-path="url(#clip0_2281_2654)">
<path d="M13.1758 29.0537L14.3707 24.6882C13.6334 23.4104 13.2459 21.9619 13.2466 20.4765C13.2487 15.8327 17.0277 12.0537 21.6708 12.0537C23.924 12.0544 26.0391 12.932 27.63 14.5244C29.2202 16.1167 30.0957 18.2332 30.095 20.4843C30.0929 25.1288 26.3139 28.9078 21.6708 28.9078C20.2612 28.907 18.8722 28.5536 17.6418 27.8821L13.1758 29.0537ZM17.8486 26.3571C19.0358 27.0618 20.1691 27.484 21.668 27.4847C25.527 27.4847 28.6705 24.344 28.6727 20.4829C28.6741 16.614 25.5454 13.4775 21.6736 13.476C17.8118 13.476 14.6704 16.6168 14.6689 20.4772C14.6682 22.0532 15.1301 23.2333 15.9057 24.4679L15.1981 27.0519L17.8486 26.3571ZM25.9144 22.4867C25.862 22.3989 25.7218 22.3465 25.5107 22.2409C25.3003 22.1354 24.2654 21.6261 24.072 21.556C23.8794 21.4859 23.7391 21.4504 23.5982 21.6615C23.4579 21.8719 23.0542 22.3465 22.9316 22.4867C22.8091 22.627 22.6858 22.6447 22.4755 22.5391C22.2651 22.4336 21.5865 22.2119 20.7826 21.4944C20.1571 20.9362 19.7342 20.247 19.6117 20.0359C19.4891 19.8255 19.5989 19.7115 19.7038 19.6067C19.7987 19.5124 19.9141 19.3609 20.0197 19.2376C20.1266 19.1158 20.1613 19.0279 20.2322 18.887C20.3023 18.7467 20.2676 18.6235 20.2145 18.5179C20.1613 18.4131 19.7406 17.3768 19.5656 16.9554C19.3942 16.5452 19.2207 16.6005 19.0918 16.5941L18.688 16.587C18.5478 16.587 18.3197 16.6395 18.127 16.8505C17.9344 17.0616 17.3904 17.5702 17.3904 18.6065C17.3904 19.6428 18.1447 20.6437 18.2496 20.7839C18.3551 20.9241 19.7335 23.0506 21.8451 23.9622C22.3473 24.1789 22.7397 24.3086 23.045 24.4056C23.5493 24.5657 24.0083 24.543 24.371 24.4892C24.7754 24.429 25.6162 23.9799 25.7919 23.4883C25.9675 22.996 25.9675 22.5746 25.9144 22.4867Z" fill="#6B7589"/>
</g>
<defs>
<clipPath id="clip0_2281_2654">
<rect width="18" height="18" fill="white" transform="translate(12.5 11.29)"/>
</clipPath>
</defs>
</svg>
