<svg width="147" height="20" viewBox="0 0 147 20" fill="none" xmlns="http://www.w3.org/2000/svg">
<g clip-path="url(#clip0_2447_2507)">
<path d="M43.4644 2.59277V4.74556H35.4271L36.7473 3.38788V9.69621L35.4271 8.57106H43.1156V10.7051H35.4271L36.7473 9.57994V16.3721H34.2832V2.59277H43.4644Z" fill="white"/>
<path d="M47.1883 2.59277V13.7542C47.1883 13.9868 47.2483 14.1668 47.3646 14.2868C47.4808 14.4106 47.6609 14.4706 47.9084 14.4706H48.6847V16.3721H47.2858C46.5207 16.3721 45.9094 16.1471 45.4518 15.6932C44.9943 15.2394 44.7617 14.6244 44.7617 13.848V2.59277H47.1883Z" fill="white"/>
<path d="M51.2652 15.9483C50.5001 15.5095 49.9113 14.8794 49.4875 14.0655C49.0637 13.2517 48.8574 12.3066 48.8574 11.2302C48.8574 10.1538 49.0674 9.2124 49.4875 8.39479C49.9076 7.58094 50.5001 6.95085 51.2652 6.51205C52.0303 6.07324 52.908 5.85196 53.9056 5.85196C54.9032 5.85196 55.7996 6.07324 56.5647 6.51205C57.3298 6.95085 57.9186 7.58094 58.3424 8.39479C58.7625 9.20865 58.9725 10.1538 58.9725 11.2302C58.9725 12.3066 58.7625 13.2479 58.3424 14.0655C57.9224 14.8831 57.3298 15.5095 56.5647 15.9483C55.7996 16.3871 54.9145 16.6084 53.9056 16.6084C52.8967 16.6084 52.0303 16.3871 51.2652 15.9483ZM55.7996 13.7242C56.2459 13.1242 56.4709 12.2916 56.4709 11.2302C56.4709 10.1688 56.2496 9.33617 55.7996 8.73609C55.3495 8.13601 54.7232 7.83222 53.9056 7.83222C53.088 7.83222 52.4579 8.13226 52.0116 8.73609C51.5653 9.33992 51.3402 10.1688 51.3402 11.2302C51.3402 12.2916 51.5653 13.1242 52.0116 13.7242C52.4579 14.3243 53.088 14.6281 53.9056 14.6281C54.7232 14.6281 55.3533 14.3281 55.7996 13.7242Z" fill="white"/>
<path d="M62.6414 2.59277V13.7542C62.6414 13.9868 62.7014 14.1668 62.8177 14.2868C62.934 14.4106 63.114 14.4706 63.3615 14.4706H64.1379V16.3721H62.7389C61.9738 16.3721 61.3625 16.1471 60.9049 15.6932C60.4474 15.2394 60.2148 14.6244 60.2148 13.848V2.59277H62.6414Z" fill="white"/>
<path d="M66.7184 15.9483C65.9533 15.5095 65.3644 14.8794 64.9406 14.0655C64.5168 13.2517 64.3105 12.3066 64.3105 11.2302C64.3105 10.1538 64.5206 9.2124 64.9406 8.39479C65.3607 7.58094 65.9533 6.95085 66.7184 6.51205C67.4835 6.07324 68.3611 5.85196 69.3587 5.85196C70.3563 5.85196 71.2527 6.07324 72.0178 6.51205C72.7829 6.95085 73.3717 7.58094 73.7955 8.39479C74.2156 9.20865 74.4256 10.1538 74.4256 11.2302C74.4256 12.3066 74.2156 13.2479 73.7955 14.0655C73.3755 14.8831 72.7829 15.5095 72.0178 15.9483C71.2527 16.3871 70.3676 16.6084 69.3587 16.6084C68.3498 16.6084 67.4835 16.3871 66.7184 15.9483ZM71.249 13.7242C71.6953 13.1242 71.9203 12.2916 71.9203 11.2302C71.9203 10.1688 71.699 9.33617 71.249 8.73609C70.7989 8.13601 70.1726 7.83222 69.355 7.83222C68.5374 7.83222 67.9073 8.13226 67.461 8.73609C67.0147 9.33992 66.7896 10.1688 66.7896 11.2302C66.7896 12.2916 67.0147 13.1242 67.461 13.7242C67.9073 14.3243 68.5374 14.6281 69.355 14.6281C70.1726 14.6281 70.8027 14.3281 71.249 13.7242Z" fill="white"/>
<path d="M77.0547 15.2469C76.3608 14.8344 75.8282 14.2493 75.4532 13.4992C75.0781 12.7491 74.8906 11.894 74.8906 10.9376C74.8906 9.98125 75.0781 9.07363 75.4532 8.29728C75.8282 7.52093 76.3646 6.92085 77.0622 6.49329C77.7598 6.06574 78.5586 5.85196 79.4512 5.85196C80.1113 5.85196 80.7039 6.01323 81.229 6.33577C81.754 6.65832 82.1366 7.10087 82.3841 7.65595V6.08449H84.7319V15.2282C84.7319 16.1208 84.5256 16.8897 84.1093 17.5385C83.6968 18.1836 83.1192 18.6749 82.3804 19.0049C81.6415 19.335 80.7902 19.5 79.8188 19.5C79.0537 19.5 78.3561 19.38 77.7222 19.14C77.0884 18.8999 76.5521 18.5624 76.1133 18.1198C75.6745 17.681 75.3632 17.1672 75.1832 16.5859L77.6472 16.3908C77.8273 16.7921 78.1048 17.1034 78.4836 17.321C78.8586 17.5422 79.3125 17.651 79.8413 17.651C80.6289 17.651 81.2402 17.4747 81.664 17.1184C82.0916 16.7621 82.3054 16.2483 82.3054 15.577V14.2193C82.0203 14.7369 81.6153 15.1419 81.0939 15.4307C80.5726 15.7195 80.0213 15.8658 79.455 15.8658C78.5474 15.8658 77.7485 15.6595 77.0584 15.2432L77.0547 15.2469ZM77.6847 12.5316C77.891 12.9966 78.1873 13.3679 78.5699 13.638C78.9524 13.908 79.3875 14.0468 79.8788 14.0468C80.3701 14.0468 80.8202 13.9118 81.1877 13.638C81.5553 13.3642 81.844 12.9966 82.0503 12.5316C82.2566 12.0665 82.3616 11.5302 82.3616 10.9189C82.3729 10.3113 82.2791 9.77498 82.0803 9.30616C81.8778 8.8411 81.5965 8.47355 81.2252 8.21102C80.8577 7.94473 80.4076 7.81347 79.875 7.81347C79.3425 7.81347 78.9299 7.94473 78.5549 8.21102C78.1798 8.4773 77.8873 8.84485 77.681 9.31742C77.4747 9.78998 77.3697 10.3225 77.3697 10.9189C77.3697 11.5152 77.4747 12.0628 77.681 12.5316H77.6847Z" fill="white"/>
<path d="M94.0288 3.07659C94.7264 3.39913 95.2702 3.86419 95.6603 4.47552C96.0503 5.0831 96.2416 5.7957 96.2416 6.60955C96.2416 7.42341 96.0466 8.10975 95.6603 8.70608C95.2702 9.30241 94.7302 9.75622 94.0288 10.075C93.3312 10.3938 92.5024 10.5513 91.546 10.5513H87.683V16.3758H86.8691V2.59277H91.546C92.5024 2.59277 93.3312 2.75404 94.0288 3.07659ZM94.3776 8.95736C95.0377 8.41354 95.3678 7.62969 95.3678 6.60955C95.3678 5.58942 95.0377 4.76056 94.3776 4.20174C93.7175 3.64666 92.7724 3.36538 91.5423 3.36538H87.6792V9.77122H91.5423C92.7724 9.77122 93.7175 9.50118 94.3776 8.95736Z" fill="white"/>
<path d="M98.3934 2.59277V8.80359L98.2959 8.74358C98.3859 7.78721 98.7609 7.06336 99.421 6.57955C100.081 6.09573 100.891 5.85195 101.848 5.85195C102.935 5.85195 103.772 6.2195 104.36 6.9471C104.949 7.67844 105.242 8.61232 105.242 9.75247V16.3721H104.465V10.24C104.465 9.48993 104.368 8.84485 104.173 8.30853C103.978 7.7722 103.674 7.3559 103.262 7.05586C102.845 6.75957 102.309 6.60955 101.649 6.60955C100.625 6.60955 99.8261 6.94335 99.2523 7.61093C98.6747 8.27852 98.3896 9.15239 98.3896 10.24V16.3721H97.6133V2.59277H98.3896H98.3934Z" fill="white"/>
<path d="M108.082 6.71833C108.768 6.1445 109.645 5.85571 110.722 5.85571C112.005 5.85571 112.968 6.21951 113.613 6.94336C114.262 7.6672 114.585 8.74359 114.585 10.165V14.5719C114.585 14.9469 114.649 15.2207 114.78 15.3857C114.907 15.5545 115.117 15.637 115.402 15.637H115.751V16.3758H115.267C114.945 16.3646 114.671 16.2896 114.454 16.1508C114.236 16.012 114.064 15.7945 113.947 15.4907C113.831 15.1869 113.786 14.7744 113.812 14.2568C113.49 14.9807 112.995 15.547 112.327 15.9558C111.659 16.3646 110.902 16.5784 110.047 16.6046C109.012 16.5934 108.179 16.3308 107.553 15.817C106.926 15.307 106.611 14.6356 106.611 13.8068C106.611 13.1992 106.773 12.7004 107.095 12.3141C107.418 11.924 107.841 11.6202 108.367 11.4027C108.892 11.1814 109.507 11.0089 110.219 10.8776L113.771 10.1988C113.771 8.95737 113.527 8.046 113.043 7.47218C112.56 6.8946 111.783 6.60956 110.726 6.60956C109.871 6.60956 109.18 6.83459 108.648 7.2884C108.115 7.74221 107.781 8.38355 107.639 9.20865L106.784 9.12989C106.964 8.09476 107.399 7.2884 108.085 6.71458L108.082 6.71833ZM108.198 15.3557C108.704 15.7383 109.387 15.9108 110.257 15.8695C110.954 15.8433 111.577 15.6633 112.121 15.3257C112.665 14.9882 113.088 14.5381 113.392 13.968C113.696 13.398 113.842 12.7529 113.827 12.0253L113.809 10.9189L110.838 11.4815L110.392 11.5415C109.795 11.6577 109.289 11.7965 108.869 11.9578C108.449 12.119 108.104 12.3478 107.841 12.6479C107.575 12.9441 107.444 13.3342 107.444 13.8143C107.444 14.4631 107.695 14.9769 108.202 15.3557H108.198Z" fill="white"/>
<path d="M117.455 6.08447L117.552 9.26864L117.338 9.09237C117.56 8.09474 117.912 7.34464 118.407 6.84207C118.902 6.33951 119.54 6.08447 120.327 6.08447H121.048V6.78206H120.327C119.784 6.78206 119.307 6.93208 118.902 7.22837C118.493 7.52466 118.178 7.93722 117.95 8.46229C117.725 8.98735 117.608 9.57993 117.608 10.24V16.3721H116.832V6.08447H117.455Z" fill="white"/>
<path d="M122.986 6.08449L123.046 8.21852C123.226 7.52093 123.616 6.95085 124.209 6.51205C124.805 6.07324 125.495 5.85196 126.286 5.85196C126.973 5.85196 127.569 6.08824 128.072 6.5608C128.574 7.03336 128.919 7.6822 129.099 8.51106C129.306 7.6822 129.711 7.03336 130.314 6.5608C130.915 6.08824 131.623 5.85196 132.441 5.85196C133.049 5.85196 133.589 6.01698 134.061 6.34702C134.534 6.67707 134.898 7.14213 135.156 7.74596C135.415 8.34604 135.546 9.02863 135.546 9.79373V16.3721H134.77V10.2588C134.77 9.13364 134.549 8.24102 134.11 7.58094C133.671 6.92085 133.075 6.59081 132.325 6.59081C131.743 6.59081 131.218 6.75583 130.753 7.08587C130.288 7.41591 129.921 7.86972 129.658 8.44355C129.392 9.02113 129.261 9.65496 129.261 10.3563V16.3721H128.484V10.2175C128.484 9.47869 128.39 8.83735 128.203 8.28603C128.015 7.73471 127.745 7.31465 127.397 7.02586C127.048 6.73708 126.628 6.59081 126.136 6.59081C125.555 6.59081 125.03 6.74833 124.565 7.06712C124.1 7.38591 123.729 7.81722 123.459 8.36854C123.189 8.91986 123.05 9.53494 123.05 10.2213V16.3758H122.273V6.08449H122.994H122.986Z" fill="white"/>
<path d="M138.378 6.71833C139.065 6.1445 139.942 5.85571 141.019 5.85571C142.301 5.85571 143.265 6.21951 143.91 6.94336C144.559 7.6672 144.882 8.74359 144.882 10.165V14.5719C144.882 14.9469 144.946 15.2207 145.077 15.3857C145.204 15.5545 145.414 15.637 145.699 15.637H146.048V16.3758H145.564C145.242 16.3646 144.968 16.2896 144.75 16.1508C144.533 16.012 144.36 15.7945 144.244 15.4907C144.128 15.1869 144.083 14.7744 144.109 14.2568C143.787 14.9807 143.292 15.547 142.624 15.9558C141.956 16.3646 141.199 16.5784 140.344 16.6046C139.309 16.5934 138.476 16.3308 137.85 15.817C137.223 15.307 136.908 14.6356 136.908 13.8068C136.908 13.1992 137.069 12.7004 137.392 12.3141C137.715 11.924 138.138 11.6202 138.663 11.4027C139.189 11.1814 139.804 11.0089 140.516 10.8776L144.068 10.1988C144.068 8.95737 143.824 8.046 143.34 7.47218C142.856 6.8946 142.08 6.60956 141.022 6.60956C140.167 6.60956 139.477 6.83459 138.945 7.2884C138.412 7.74221 138.078 8.38355 137.936 9.20865L137.081 9.12989C137.261 8.09476 137.696 7.2884 138.382 6.71458L138.378 6.71833ZM138.495 15.3557C139.001 15.7383 139.684 15.9108 140.554 15.8695C141.251 15.8433 141.874 15.6633 142.418 15.3257C142.962 14.9882 143.385 14.5381 143.689 13.968C143.993 13.398 144.139 12.7529 144.124 12.0253L144.105 10.9189L141.135 11.4815L140.689 11.5415C140.092 11.6577 139.586 11.7965 139.166 11.9578C138.746 12.119 138.401 12.3478 138.138 12.6479C137.872 12.9441 137.741 13.3342 137.741 13.8143C137.741 14.4631 137.992 14.9769 138.498 15.3557H138.495Z" fill="white"/>
<path d="M20.3493 0.5C15.5675 0.5 11.6895 4.37801 11.6895 9.15989C11.6895 13.9418 15.5675 17.8198 20.3493 17.8198C25.1312 17.8198 29.0092 13.9418 29.0092 9.15989C29.0092 4.37801 25.1312 0.5 20.3493 0.5ZM24.0286 9.84623C24.0286 10.1163 23.811 10.3338 23.541 10.3338H21.5195V12.3553C21.5195 12.6253 21.302 12.8429 21.0319 12.8429H19.6593C19.3892 12.8429 19.1717 12.6253 19.1717 12.3553V10.3338H17.1502C16.8801 10.3338 16.6626 10.1163 16.6626 9.84623V8.47355C16.6626 8.20351 16.8801 7.98598 17.1502 7.98598H19.1717V5.96447C19.1717 5.69443 19.3892 5.4769 19.6593 5.4769H21.0319C21.302 5.4769 21.5195 5.69443 21.5195 5.96447V7.98598H23.541C23.811 7.98598 24.0286 8.20351 24.0286 8.47355V9.84623Z" fill="#EB2D25"/>
<path d="M17.1594 10.3338H19.181V12.3553C19.181 12.6253 19.3985 12.8429 19.6685 12.8429H21.0412C21.3112 12.8429 21.5288 12.6253 21.5288 12.3553V10.3338H23.5503C23.8203 10.3338 24.0378 10.1163 24.0378 9.84622V8.47354C24.0378 8.20351 23.8203 7.98598 23.5503 7.98598H21.5288V5.96446C21.5288 5.69443 21.3112 5.4769 21.0412 5.4769H19.6685C19.3985 5.4769 19.181 5.69443 19.181 5.96446V7.98598H17.1594C16.8894 7.98598 16.6719 8.20351 16.6719 8.47354V9.84622C16.6719 10.1163 16.8894 10.3338 17.1594 10.3338Z" fill="white"/>
<path d="M3.88086 3.58291V5.25188C3.88086 5.43566 4.02713 5.58193 4.2109 5.58193H10.2042C10.3392 5.58193 10.4592 5.49566 10.508 5.3719C10.7255 4.80557 10.9918 4.26175 11.3031 3.74793C11.4344 3.53041 11.2731 3.25287 11.018 3.25287H4.2109C4.02713 3.25287 3.88086 3.39914 3.88086 3.58291Z" fill="white"/>
<path d="M9.51125 7.99725H0.330043C0.146269 7.99725 0 8.14352 0 8.3273V9.99627C0 10.18 0.146269 10.3263 0.330043 10.3263H9.51125C9.70628 10.3263 9.85255 10.1613 9.83755 9.97001C9.81504 9.70373 9.80379 9.43369 9.80379 9.16366C9.80379 8.89362 9.81504 8.62359 9.83755 8.3573C9.85255 8.16603 9.70628 8.001 9.51125 8.001V7.99725Z" fill="white"/>
<path d="M6.21469 13.0717V14.7406C6.21469 14.9244 6.36471 15.0707 6.54473 15.0707L10.9778 15.0632C11.2253 15.0632 11.3866 14.8006 11.2704 14.5831C11.0228 14.0993 10.674 13.3792 10.5053 12.9554C10.4565 12.8279 10.3327 12.7416 10.1977 12.7416H6.54098C6.35721 12.7416 6.21094 12.8879 6.21094 13.0717H6.21469Z" fill="white"/>
</g>
<defs>
<clipPath id="clip0_2447_2507">
<rect width="146.048" height="19" fill="white" transform="translate(0 0.5)"/>
</clipPath>
</defs>
</svg>
