<svg width="170" height="51" viewBox="0 0 170 51" fill="none" xmlns="http://www.w3.org/2000/svg">
<g clip-path="url(#clip0_2143_33562)">
<path d="M163 0.290039H6.75C3.29822 0.290039 0.5 3.08826 0.5 6.54004V44.04C0.5 47.4918 3.29822 50.29 6.75 50.29H163C166.452 50.29 169.25 47.4918 169.25 44.04V6.54004C169.25 3.08826 166.452 0.290039 163 0.290039Z" fill="black"/>
<path d="M163 1.29004C165.899 1.29004 168.25 3.64054 168.25 6.54004V44.04C168.25 46.9395 165.899 49.29 163 49.29H6.75C3.8505 49.29 1.5 46.9395 1.5 44.04V6.54004C1.5 3.64054 3.8505 1.29004 6.75 1.29004H163ZM163 0.290039H6.75C3.29822 0.290039 0.5 3.08826 0.5 6.54004V44.04C0.5 47.4918 3.29822 50.29 6.75 50.29H163C166.452 50.29 169.25 47.4918 169.25 44.04V6.54004C169.25 3.08826 166.452 0.290039 163 0.290039Z" fill="#A6A6A6"/>
<path d="M59.7759 13.0899C59.8189 14.0164 59.48 14.92 58.8384 15.5899C58.1215 16.3346 57.1215 16.7392 56.0884 16.7024C54.5039 16.69 53.0811 15.7289 52.4781 14.2635C51.875 12.7981 52.2091 11.114 53.3259 9.98988C54.0516 9.24904 55.0517 8.84178 56.0884 8.86488C56.6169 8.86312 57.1401 8.96947 57.6259 9.17738C58.0783 9.35982 58.4809 9.64683 58.8009 10.0149L58.1384 10.6774C57.6326 10.0757 56.8733 9.74699 56.0884 9.78988C55.2995 9.78601 54.543 10.1037 53.9935 10.6698C53.4439 11.2359 53.1487 12.0014 53.1759 12.7899C53.1592 13.9814 53.8609 15.0659 54.9546 15.539C56.0483 16.012 57.3192 15.7806 58.1759 14.9524C58.5606 14.5356 58.7824 13.9943 58.8009 13.4274H56.0884V12.5274H59.7259C59.7593 12.713 59.776 12.9013 59.7759 13.0899ZM65.5009 9.96488H62.1259V12.3399H65.2009V13.2399H62.1259V15.6149H65.5009V16.5399H61.1259V9.03988H65.5009V9.96488ZM69.6009 16.5399H68.6384V9.96488H66.5384V9.03988H71.7509V9.96488H69.6009V16.5399ZM75.4259 16.5399V9.03988H76.3884V16.5399H75.4259ZM80.6634 16.5399H79.7009V9.96488H77.6009V9.03988H82.7509V9.96488H80.6634V16.5399ZM92.5134 15.5649C90.9922 17.0777 88.5347 17.0777 87.0134 15.5649C85.5388 14.0039 85.5388 11.5633 87.0134 10.0024C87.7409 9.26956 88.7308 8.85742 89.7634 8.85742C90.796 8.85742 91.7859 9.26956 92.5134 10.0024C93.9944 11.5608 93.9944 14.0064 92.5134 15.5649ZM87.7259 14.9399C88.8526 16.0618 90.6743 16.0618 91.8009 14.9399C92.9074 13.7201 92.9074 11.8597 91.8009 10.6399C90.6743 9.51792 88.8526 9.51792 87.7259 10.6399C86.6194 11.8597 86.6194 13.7201 87.7259 14.9399ZM94.9759 16.5399V9.03988H96.1509L99.8009 14.8774V9.03988H100.763V16.5399H99.7634L95.9509 10.4274V16.5399H94.9759Z" fill="white" stroke="white" stroke-width="0.2"/>
<path d="M85.6737 27.477C82.7429 27.4908 80.377 29.8753 80.3862 32.8061C80.3954 35.7368 82.7762 38.1065 85.707 38.1019C88.6377 38.0973 91.0111 35.7202 91.0112 32.7895C91.0317 31.3699 90.4752 30.0029 89.469 29.0014C88.4628 27.9998 87.0931 27.4497 85.6737 27.477ZM85.6737 36.0145C84.3527 36.1069 83.1095 35.3824 82.5387 34.1875C81.9679 32.9927 82.1855 31.5703 83.0874 30.6008C83.9893 29.6312 85.3922 29.3115 86.6251 29.7946C87.8581 30.2776 88.6704 31.4653 88.6737 32.7895C88.7143 33.6178 88.4187 34.4275 87.8538 35.0347C87.289 35.6419 86.5028 35.9952 85.6737 36.0145ZM74.0362 27.477C71.1038 27.4839 68.7316 29.8654 68.7362 32.7978C68.7408 35.7302 71.1204 38.1043 74.0528 38.102C76.9852 38.0997 79.3612 35.7219 79.3612 32.7895C79.3818 31.3699 78.8252 30.0029 77.819 29.0014C76.8128 27.9998 75.4431 27.4497 74.0237 27.477H74.0362ZM74.0362 36.0145C72.7145 36.1121 71.4677 35.3912 70.8928 34.1971C70.318 33.003 70.5322 31.5788 71.4328 30.6066C72.3334 29.6344 73.7371 29.3121 74.9716 29.7941C76.2061 30.2761 77.0201 31.4642 77.0237 32.7895C77.0643 33.6178 76.7687 34.4275 76.2038 35.0347C75.639 35.6419 74.8528 35.9952 74.0237 36.0145H74.0362ZM60.1737 29.1145V31.3645H65.5737C65.489 32.4242 65.0485 33.4242 64.3237 34.202C63.2312 35.3148 61.7193 35.9141 60.1612 35.852C56.8474 35.852 54.1612 33.1657 54.1612 29.852C54.1612 26.5383 56.8474 23.852 60.1612 23.852C61.6834 23.8272 63.1534 24.407 64.2487 25.4645L65.8362 23.877C64.3423 22.3643 62.2996 21.521 60.1737 21.5395C57.1474 21.4217 54.2991 22.9691 52.751 25.572C51.2028 28.175 51.2028 31.4164 52.751 34.0194C54.2991 36.6224 57.1474 38.1698 60.1737 38.052C62.3384 38.1498 64.4396 37.3066 65.9362 35.7395C67.2458 34.3006 67.945 32.4092 67.8862 30.4645C67.8902 29.9907 67.8483 29.5177 67.7612 29.052L60.1737 29.1145ZM116.811 30.8645C116.144 28.901 114.334 27.5533 112.261 27.477C110.879 27.4743 109.558 28.0437 108.61 29.0501C107.663 30.0566 107.175 31.4101 107.261 32.7895C107.23 34.2011 107.775 35.5645 108.77 36.5664C109.765 37.5684 111.124 38.1227 112.536 38.102C114.312 38.1116 115.974 37.2288 116.961 35.752L115.149 34.502C114.598 35.4194 113.606 35.9797 112.536 35.977C111.428 36.0192 110.407 35.3797 109.961 34.3645L117.074 31.427L116.811 30.8645ZM109.561 32.6395C109.51 31.8584 109.775 31.0897 110.297 30.5065C110.819 29.9233 111.554 29.5748 112.336 29.5395C113.16 29.4852 113.937 29.9278 114.311 30.6645L109.561 32.6395ZM103.786 37.7895H106.124V22.1645H103.786V37.7895ZM99.9612 28.6645H99.8737C99.1611 27.8678 98.1425 27.4131 97.0737 27.4145C94.2363 27.5521 92.0066 29.8926 92.0066 32.7332C92.0066 35.5739 94.2363 37.9144 97.0737 38.052C98.1459 38.07 99.1712 37.6123 99.8737 36.802H99.9487V37.5645C99.9487 39.602 98.8612 40.6895 97.1112 40.6895C95.919 40.6616 94.8621 39.9158 94.4362 38.802L92.3987 39.652C93.1833 41.5605 95.0477 42.8018 97.1112 42.7896C99.8487 42.7896 102.111 41.177 102.111 37.252V27.7895H99.9612V28.6645ZM97.2862 36.0145C95.6148 35.8672 94.3329 34.4673 94.3329 32.7895C94.3329 31.1116 95.6148 29.7118 97.2862 29.5645C98.0938 29.6059 98.8505 29.9717 99.3847 30.5788C99.9189 31.186 100.185 31.9831 100.124 32.7895C100.193 33.5995 99.927 34.4025 99.3886 35.0117C98.8503 35.6209 98.086 35.9832 97.2737 36.0145H97.2862ZM127.761 22.1645H122.174V37.7895H124.511V31.8645H127.774C129.59 31.9949 131.326 31.1001 132.274 29.5457C133.222 27.9913 133.222 26.0377 132.274 24.4833C131.326 22.9288 129.59 22.034 127.774 22.1645H127.761ZM127.761 29.6645H124.499V24.3395H127.811C129.292 24.3395 130.492 25.5399 130.492 27.0207C130.492 28.5015 129.292 29.702 127.811 29.702L127.761 29.6645ZM142.174 27.4145C140.435 27.3105 138.8 28.2483 138.011 29.802L140.086 30.6645C140.504 29.8941 141.338 29.443 142.211 29.5145C142.811 29.4445 143.413 29.6182 143.883 29.9966C144.353 30.375 144.652 30.9264 144.711 31.527V31.6895C143.96 31.292 143.123 31.0859 142.274 31.0895C140.036 31.0895 137.774 32.3395 137.774 34.602C137.818 35.5766 138.255 36.4918 138.985 37.1392C139.715 37.7867 140.676 38.1114 141.649 38.0395C142.848 38.1256 143.998 37.5504 144.649 36.5395H144.724V37.7895H146.974V31.777C146.974 29.0395 144.899 27.452 142.236 27.452L142.174 27.4145ZM141.886 35.977C141.124 35.977 140.061 35.5895 140.061 34.652C140.061 33.402 141.386 32.9895 142.561 32.9895C143.304 32.9712 144.038 33.1525 144.686 33.5145C144.525 34.9137 143.357 35.9802 141.949 36.0145L141.886 35.977ZM155.174 27.7895L152.499 34.5645H152.424L149.649 27.7895H147.149L151.311 37.2645L148.936 42.527H151.374L157.774 27.7895H155.174ZM134.161 37.7895H136.499V22.1645H134.161V37.7895Z" fill="white"/>
<path d="M13.5502 9.71543C13.1428 10.2043 12.9371 10.8302 12.9752 11.4654V39.1154C12.9371 39.7507 13.1428 40.3765 13.5502 40.8654L13.6377 40.9529L29.1252 25.4779V25.1154L13.6377 9.62793L13.5502 9.71543Z" fill="url(#paint0_linear_2143_33562)"/>
<path d="M34.25 30.6404L29.125 25.4779V25.1154L34.25 19.9404L34.3625 20.0029L40.5 23.4904C42.25 24.4779 42.25 26.1029 40.5 27.1029L34.3875 30.5779L34.25 30.6404Z" fill="url(#paint1_linear_2143_33562)"/>
<path d="M34.4008 30.565L29.1258 25.29L13.5508 40.865C14.2867 41.5119 15.3788 41.5434 16.1508 40.94L34.4133 30.565" fill="url(#paint2_linear_2143_33562)"/>
<path d="M34.3996 20.0152L16.1371 9.64022C15.3651 9.03682 14.273 9.06832 13.5371 9.71522L29.1246 25.2902L34.3996 20.0152Z" fill="url(#paint3_linear_2143_33562)"/>
<path opacity="0.2" d="M34.2508 30.4521L16.1383 40.7647C15.3971 41.3188 14.3795 41.3188 13.6383 40.7647L13.5508 40.8521L13.6383 40.9396C14.3781 41.498 15.3985 41.498 16.1383 40.9396L34.4008 30.5646L34.2508 30.4521Z" fill="black"/>
<path opacity="0.12" d="M13.5502 40.69C13.1428 40.2012 12.9371 39.5753 12.9752 38.94V39.1275C12.9371 39.7628 13.1428 40.3887 13.5502 40.8775L13.6377 40.79L13.5502 40.69ZM40.5002 26.915L34.2502 30.4525L34.3627 30.565L40.5002 27.09C41.209 26.7571 41.6858 26.0705 41.7502 25.29C41.6077 25.9961 41.1461 26.5962 40.5002 26.915Z" fill="black"/>
<path opacity="0.25" d="M16.1379 9.81508L40.5004 23.6651C41.1463 23.9839 41.6079 24.584 41.7504 25.2901C41.686 24.5096 41.2092 23.8231 40.5004 23.4901L16.1379 9.64008C14.3879 8.65258 12.9629 9.47758 12.9629 11.4776V11.6651C13.0004 9.65258 14.4004 8.82758 16.1379 9.81508Z" fill="white"/>
</g>
<defs>
<linearGradient id="paint0_linear_2143_33562" x1="998.942" y1="164.628" x2="-328.725" y2="1492.3" gradientUnits="userSpaceOnUse">
<stop stop-color="#00A0FF"/>
<stop offset="0.01" stop-color="#00A1FF"/>
<stop offset="0.26" stop-color="#00BEFF"/>
<stop offset="0.51" stop-color="#00D2FF"/>
<stop offset="0.76" stop-color="#00DFFF"/>
<stop offset="1" stop-color="#00E3FF"/>
</linearGradient>
<linearGradient id="paint1_linear_2143_33562" x1="1395.38" y1="554.94" x2="-1628.38" y2="554.94" gradientUnits="userSpaceOnUse">
<stop stop-color="#FFE000"/>
<stop offset="0.41" stop-color="#FFBD00"/>
<stop offset="0.78" stop-color="#FFA500"/>
<stop offset="1" stop-color="#FF9C00"/>
</linearGradient>
<linearGradient id="paint2_linear_2143_33562" x1="1812.3" y1="522.412" x2="-455.754" y2="2789.47" gradientUnits="userSpaceOnUse">
<stop stop-color="#FF3A44"/>
<stop offset="1" stop-color="#C31162"/>
</linearGradient>
<linearGradient id="paint3_linear_2143_33562" x1="-377.713" y1="-181.07" x2="634.627" y2="831.27" gradientUnits="userSpaceOnUse">
<stop stop-color="#32A071"/>
<stop offset="0.07" stop-color="#2DA771"/>
<stop offset="0.48" stop-color="#15CF74"/>
<stop offset="0.8" stop-color="#06E775"/>
<stop offset="1" stop-color="#00F076"/>
</linearGradient>
<clipPath id="clip0_2143_33562">
<rect width="168.75" height="50" fill="white" transform="translate(0.5 0.290039)"/>
</clipPath>
</defs>
</svg>
