<svg width="26" height="25" viewBox="0 0 26 25" fill="none" xmlns="http://www.w3.org/2000/svg">
<path d="M0.5 25L2.25729 18.5802C1.17292 16.701 0.603125 14.5708 0.604166 12.3865C0.607291 5.55729 6.16457 0 12.9927 0C16.3062 0.00104167 19.4166 1.29167 21.7562 3.63333C24.0947 5.975 25.3822 9.0875 25.3812 12.3979C25.3781 19.2281 19.8208 24.7854 12.9927 24.7854C10.9198 24.7844 8.87706 24.2646 7.06769 23.2771L0.5 25ZM7.37186 21.0344C9.11769 22.0708 10.7844 22.6917 12.9885 22.6927C18.6635 22.6927 23.2864 18.074 23.2895 12.3958C23.2916 6.70625 18.6906 2.09375 12.9968 2.09167C7.31769 2.09167 2.69791 6.71042 2.69583 12.3875C2.69479 14.7052 3.37395 16.4406 4.51457 18.2562L3.47395 22.0562L7.37186 21.0344ZM19.2333 15.3427C19.1562 15.2135 18.95 15.1365 18.6395 14.9812C18.3302 14.826 16.8083 14.0771 16.5239 13.974C16.2406 13.8708 16.0343 13.8187 15.827 14.1292C15.6208 14.4385 15.0271 15.1365 14.8468 15.3427C14.6666 15.549 14.4854 15.575 14.176 15.4198C13.8666 15.2646 12.8687 14.9385 11.6864 13.8833C10.7666 13.0625 10.1448 12.049 9.96456 11.7385C9.78435 11.4292 9.94581 11.2615 10.1 11.1073C10.2396 10.9688 10.4094 10.7458 10.5646 10.5646C10.7219 10.3854 10.7729 10.2563 10.8771 10.049C10.9802 9.84271 10.9291 9.66146 10.851 9.50625C10.7729 9.35208 10.1541 7.82812 9.89685 7.20833C9.64477 6.60521 9.38956 6.68646 9.19998 6.67708L8.60623 6.66667C8.39998 6.66667 8.06457 6.74375 7.78123 7.05417C7.4979 7.36458 6.6979 8.1125 6.6979 9.63646C6.6979 11.1604 7.80728 12.6323 7.96144 12.8385C8.11665 13.0448 10.1437 16.1719 13.2489 17.5125C13.9875 17.8312 14.5646 18.0219 15.0135 18.1646C15.7552 18.4 16.4302 18.3667 16.9635 18.2875C17.5583 18.199 18.7948 17.5385 19.0531 16.8156C19.3114 16.0917 19.3114 15.4719 19.2333 15.3427Z" fill="#25D366"/>
</svg>
